<?xml version="1.0" encoding="UTF-8" standalone="no"?>
<!DOCTYPE svg PUBLIC "-//W3C//DTD SVG 1.1//EN" "http://www.w3.org/Graphics/SVG/1.1/DTD/svg11.dtd">
<svg width="100%" height="100%" viewBox="0 0 956 316" version="1.1" xmlns="http://www.w3.org/2000/svg" xmlns:xlink="http://www.w3.org/1999/xlink" xml:space="preserve" xmlns:serif="http://www.serif.com/" style="fill-rule:evenodd;clip-rule:evenodd;stroke-linejoin:round;stroke-miterlimit:2;">
    <g transform="matrix(1,0,0,1,-386.131,-121.476)">
        <g transform="matrix(1,0,0,1,0,48.5)">
            <g transform="matrix(1,0,0,1,755.565,-17.6799)">
                <circle cx="568.767" cy="351.017" r="17.18" style="fill:rgb(211,48,111);"/>
            </g>
            <g transform="matrix(1,0,0,1,237,0)">
                <path d="M871.827,363.526L849.144,386.544L1059.3,386.544L1081.98,364.194C1081.98,364.194 1070.31,362.526 1065.64,356.521C1060.97,350.517 1058.97,347.181 1058.97,335.172L1058.97,252.11L992.584,284.467L974.237,302.481L974.571,321.161C974.571,321.161 967.232,322.829 962.562,317.492C957.892,312.155 956.557,309.82 956.557,301.48C956.557,293.14 955.557,253.444 955.557,253.444L1019.6,223.088L1038.95,203.073L1038.29,163.71L1054.63,149.366C1054.63,149.366 1058.63,146.364 1058.63,142.361C1058.63,138.358 1058.3,96.66 1058.3,96.66L1079.98,74.644L870.493,73.309L847.809,95.993C847.809,95.993 855.148,96.327 860.152,99.329C865.156,102.331 870.159,111.004 870.159,126.349C870.159,141.694 871.827,363.526 871.827,363.526ZM955.89,196.735L972.569,189.396C972.569,189.396 972.755,175.055 972.903,163.71C973.05,152.366 970.33,150.225 967.565,146.698C962.729,140.526 955.557,140.36 955.557,140.36L955.89,196.735Z" style="fill:rgb(211,48,111);"/>
            </g>
            <g transform="matrix(1,0,0,1,237,0)">
                <path d="M950.886,241.435C950.886,241.435 950.553,294.141 950.553,303.815C950.553,313.489 958.559,326.832 973.236,326.832C987.914,326.832 996.254,316.158 996.254,304.149C996.254,292.14 996.921,286.802 996.921,286.802L1053.3,258.114C1053.3,258.114 1053.63,320.828 1053.63,336.506C1053.63,352.185 1064.64,362.526 1064.64,362.526L884.503,362.859C884.503,362.859 894.844,356.188 894.844,338.174C894.844,320.161 893.586,111.339 893.51,97.661C893.434,83.983 887.172,77.98 887.172,77.98L1059.97,79.314C1059.97,79.314 1053.3,83.984 1053.3,92.991C1053.3,101.997 1053.63,142.027 1053.63,142.027L996.254,168.047C996.254,168.047 995.92,152.368 995.92,138.358C995.92,124.348 983.911,114.34 972.569,114.34C961.227,114.34 950.553,123.68 950.553,135.022L950.553,204.741L1033.95,165.378L1034.28,200.071L950.886,241.435Z" style="fill:white;"/>
            </g>
        </g>
        <g transform="matrix(1,0,0,1,0,48.5)">
            <g transform="matrix(1,0,0,1,516.72,-16.012)">
                <circle cx="568.767" cy="351.017" r="17.18" style="fill:rgb(211,48,111);"/>
            </g>
            <path d="M871.827,363.526L849.144,386.544L1059.3,386.544L1081.98,364.194C1081.98,364.194 1070.31,362.526 1065.64,356.521C1060.97,350.517 1058.97,347.181 1058.97,335.172L1058.97,252.11L992.584,284.467L974.237,302.481L974.571,321.161C974.571,321.161 967.232,322.829 962.562,317.492C957.892,312.155 956.557,309.82 956.557,301.48C956.557,293.14 955.557,253.444 955.557,253.444L1019.6,223.088L1038.95,203.073L1038.29,163.71L1054.63,149.366C1054.63,149.366 1058.63,146.364 1058.63,142.361C1058.63,138.358 1058.3,96.66 1058.3,96.66L1079.98,74.644L870.493,73.309L847.809,95.993C847.809,95.993 855.148,96.327 860.152,99.329C865.156,102.331 870.159,111.004 870.159,126.349C870.159,141.694 871.827,363.526 871.827,363.526ZM955.89,196.735L972.569,189.396C972.569,189.396 972.755,175.055 972.903,163.71C973.05,152.366 970.33,150.225 967.565,146.698C962.729,140.526 955.557,140.36 955.557,140.36L955.89,196.735Z" style="fill:rgb(211,48,111);"/>
            <path d="M950.886,241.435C950.886,241.435 950.553,294.141 950.553,303.815C950.553,313.489 958.559,326.832 973.236,326.832C987.914,326.832 996.254,316.158 996.254,304.149C996.254,292.14 996.921,286.802 996.921,286.802L1053.3,258.114C1053.3,258.114 1053.63,320.828 1053.63,336.506C1053.63,352.185 1064.64,362.526 1064.64,362.526L884.503,362.859C884.503,362.859 894.844,356.188 894.844,338.174C894.844,320.161 893.586,111.339 893.51,97.661C893.434,83.983 887.172,77.98 887.172,77.98L1059.97,79.314C1059.97,79.314 1053.3,83.984 1053.3,92.991C1053.3,101.997 1053.63,142.027 1053.63,142.027L996.254,168.047C996.254,168.047 995.92,152.368 995.92,138.358C995.92,124.348 983.911,114.34 972.569,114.34C961.227,114.34 950.553,123.68 950.553,135.022L950.553,204.741L1033.95,165.378L1034.28,200.071L950.886,241.435Z" style="fill:white;"/>
        </g>
        <g transform="matrix(1,0,0,1,0,48.5)">
            <g transform="matrix(1,0,0,1,274.539,-5.33732)">
                <circle cx="568.767" cy="351.017" r="17.18" style="fill:rgb(211,48,111);"/>
            </g>
            <path d="M606.629,387.211L628.312,364.861C628.312,364.861 628.003,151.035 627.978,133.688C627.953,116.341 626.31,111.004 619.639,106C612.967,100.997 604.627,99.996 604.627,99.996L627.311,77.98C627.311,77.98 759.734,79.481 774.421,79.647C789.108,79.814 797.772,87.32 801.775,90.656C805.778,93.992 814.785,105.667 814.785,116.008C814.785,150.033 787.431,160.708 787.431,160.708C787.431,160.708 815.785,169.715 815.785,203.407C815.785,234.43 816.711,321.168 816.119,337.841C815.16,364.865 838.469,366.529 838.469,366.529L815.118,388.879C815.118,388.879 782.093,388.212 768.417,388.212C754.74,388.212 730.388,373.2 730.388,351.517C730.388,329.835 730.055,259.782 730.055,247.44C730.055,226.424 712.375,224.756 712.375,224.756C712.375,224.756 713.516,325.489 713.709,342.511C713.902,359.533 734.424,366.428 734.424,366.428L712.708,388.879L606.629,387.211ZM711.707,157.706L712.041,143.362C712.041,143.362 717.378,141.694 722.382,146.698C729.223,153.538 727.719,158.039 727.719,158.039L711.707,157.706Z" style="fill:rgb(211,48,111);"/>
            <path d="M719.38,199.404C719.38,199.404 752.405,195.067 752.405,226.757C752.405,258.448 752.917,304.145 753.072,327.499C753.226,350.854 772.753,366.195 788.432,366.195C804.11,366.195 820.455,365.528 820.455,365.528C820.455,365.528 810.782,359.523 810.782,343.511C810.782,327.499 809.781,217.417 809.781,201.405C809.781,185.393 803.776,178.722 795.77,170.716C787.764,162.71 770.418,163.377 770.418,163.377L769.751,158.707C769.751,158.707 786.43,160.374 797.772,148.032C809.114,135.689 810.448,127.016 810.448,118.677C810.448,110.337 806.945,101.497 798.773,93.324C790.6,85.152 781.76,82.65 776.089,82.65C770.418,82.65 643.99,82.316 643.99,82.316C643.99,82.316 650.328,88.654 650.328,100.997C650.328,113.339 651.329,333.17 651.329,344.846C651.329,356.521 640.988,364.861 640.988,364.861L718.046,365.528C718.046,365.528 708.705,356.188 708.705,348.182C708.705,340.176 707.371,150.033 707.371,139.025C707.371,128.017 718.046,118.677 730.055,118.677C742.064,118.677 751.485,129.356 751.737,138.024C751.99,146.693 747.401,162.71 729.721,162.71C712.041,162.71 719.713,163.043 719.713,163.043L719.38,199.404Z" style="fill:white;"/>
        </g>
        <g id="F." transform="matrix(1,0,0,1,0,48.5)">
            <circle cx="568.767" cy="351.017" r="17.18" style="fill:rgb(211,48,111);"/>
            <path d="M386.131,95.326L408.147,72.976L617.637,74.977L595.621,96.994L595.954,144.363L576.273,163.043L575.939,204.741L558.259,222.421L492.877,253.11L493.878,343.178C493.878,343.178 494.282,349.927 497.881,355.187C502.218,361.525 515.227,363.526 515.227,363.526L492.877,385.543L386.131,385.209L407.814,362.192C407.814,362.192 408.118,151.704 408.147,131.353C408.177,111.001 406.479,105.333 400.475,100.997C394.47,96.66 386.131,95.326 386.131,95.326ZM492.544,197.736L493.211,140.026C493.211,140.026 510.223,144.029 510.223,157.706C510.223,171.383 510.557,188.729 510.557,188.729L492.544,197.736Z" style="fill:rgb(211,48,111);"/>
            <path d="M534.241,169.048L591.618,141.027C591.618,141.027 591.346,103 591.284,94.325C591.222,85.65 598.289,78.98 598.289,78.98L424.493,77.312C424.493,77.312 431.164,81.649 431.164,90.656L431.164,343.511C431.164,353.852 420.823,362.859 420.823,362.859L497.881,362.859C497.881,362.859 488.207,356.188 488.207,343.178C488.207,330.168 488.541,241.102 488.541,241.102L570.936,201.072L570.936,165.045L488.541,204.074C488.541,204.074 488.207,145.697 488.207,135.022C488.207,124.348 498.882,115.341 511.224,115.341C523.567,115.341 534.241,125.348 534.241,134.021L534.241,169.048Z" style="fill:white;"/>
        </g>
    </g>
</svg>
